<svg id="b026600b-ee38-4d61-a1c5-85a2aa1fb2ab" data-name="Layer 1" xmlns="http://www.w3.org/2000/svg" viewBox="0 0 177.96 115.52"><defs><style>.b6bde88f-f713-4dac-8d4c-2a06e067f433{fill:#fff;}</style></defs><title>logo</title><path class="b6bde88f-f713-4dac-8d4c-2a06e067f433" d="M9.17,0a8.71,8.71,0,0,1,6.29,2.59A8.68,8.68,0,0,1,18.12,9V30.32H29.21a9.1,9.1,0,0,1,8.95,9v.14a8.27,8.27,0,0,1-2.66,6.29,8.57,8.57,0,0,1-6.29,2.66H18.12V92.3a4.9,4.9,0,0,0,1.48,3.62,5,5,0,0,0,3.7,1.48h5.91a9.1,9.1,0,0,1,8.95,9v.14a8.26,8.26,0,0,1-2.66,6.29,8.57,8.57,0,0,1-6.29,2.66H23.3a22.62,22.62,0,0,1-16.5-6.8A22.56,22.56,0,0,1,0,92.3V9A8.68,8.68,0,0,1,2.66,2.59,8.71,8.71,0,0,1,9,0Z"/><circle class="b6bde88f-f713-4dac-8d4c-2a06e067f433" cx="89.33" cy="13.03" r="10.27"/><circle class="b6bde88f-f713-4dac-8d4c-2a06e067f433" cx="142.17" cy="13.03" r="10.27"/><path class="b6bde88f-f713-4dac-8d4c-2a06e067f433" d="M71.9,106.57a8.26,8.26,0,0,1-2.66,6.29A8.57,8.57,0,0,1,63,115.52h-.22a8.56,8.56,0,0,1-6.28-2.66,8.27,8.27,0,0,1-2.67-6.29V65.9A34.43,34.43,0,0,1,64.21,40.75,34.29,34.29,0,0,1,89.36,30.32q17.6,0,26.55,11.69,8.88-11.68,26.48-11.69a34.27,34.27,0,0,1,25.14,10.43A34.43,34.43,0,0,1,178,65.9v40.67a8.53,8.53,0,0,1-2.59,6.29,8.64,8.64,0,0,1-6.36,2.66h-.15a9.1,9.1,0,0,1-9-9V65.9a17.49,17.49,0,0,0-35,0v40.67a9.09,9.09,0,0,1-9,9h-.15a8.67,8.67,0,0,1-6.36-2.66,8.29,8.29,0,0,1-2.66-6.29V65.9A17.43,17.43,0,0,0,89.36,48.44,17.45,17.45,0,0,0,71.9,65.9Z"/></svg>